<?xml version="1.0" standalone="no"?>
<!DOCTYPE svg PUBLIC "-//W3C//DTD SVG 20010904//EN"
 "http://www.w3.org/TR/2001/REC-SVG-20010904/DTD/svg10.dtd">
<svg version="1.0" xmlns="http://www.w3.org/2000/svg"
 width="150.000000pt" height="150.000000pt" viewBox="0 0 150.000000 150.000000"
 preserveAspectRatio="xMidYMid meet">

<g transform="translate(0.000000,150.000000) scale(0.100000,-0.100000)"
fill="#000000" stroke="none">
<path d="M385 1458 c10 -66 14 -74 39 -88 16 -8 29 -28 37 -57 7 -25 29 -66
49 -92 21 -26 41 -58 45 -72 14 -43 73 -155 99 -186 22 -26 28 -48 41 -159 8
-71 20 -151 25 -177 20 -99 13 -167 -25 -243 -19 -38 -35 -76 -35 -84 0 -8
-11 -50 -25 -93 -26 -79 -30 -120 -19 -176 l6 -31 158 0 157 0 6 45 c12 84
-39 264 -102 363 -62 98 -65 106 -67 252 -2 144 9 223 47 318 46 119 92 227
109 256 25 43 68 154 84 215 12 46 11 51 -3 51 -10 0 -27 -25 -45 -68 -16 -37
-38 -86 -48 -109 -33 -70 -87 -102 -58 -33 8 19 10 49 6 82 l-7 53 -45 1 c-33
1 -44 -2 -40 -12 3 -7 -1 -26 -9 -41 -19 -35 -19 -53 0 -79 19 -28 9 -37 -24
-20 -14 7 -42 19 -61 26 -199 70 -200 70 -200 127 0 42 -30 73 -71 73 -31 0
-31 0 -24 -42z m248 -194 c65 -39 77 -50 83 -79 6 -31 -8 -75 -24 -75 -4 1
-23 22 -42 47 -19 26 -48 60 -63 76 -16 17 -35 41 -44 54 -24 36 1 30 90 -23z
m171 -933 c28 -70 35 -114 14 -93 -18 18 -49 14 -75 -10 -35 -33 -32 -12 23
161 6 19 8 16 38 -58z"/>
</g>
</svg>
